<svg width="53" height="10" viewBox="0 0 53 10" fill="none" xmlns="http://www.w3.org/2000/svg">
<g clip-path="url(#clip0_4_3535)">
<path d="M9.0031 2.66638C8.65234 2.44282 8.25082 2.19106 7.48234 2.19106C6.71394 2.19106 6.31358 2.44391 5.96283 2.66638C5.6505 2.86497 5.40138 3.02233 4.86471 3.02233C4.32804 3.02233 4.07892 2.86497 3.76659 2.66638C3.41583 2.44282 3.02294 2.19106 2.24954 2.19106C1.47614 2.19106 1.1068 2.44391 0.762242 2.66638C0.535413 2.82015 0.276494 2.93369 0 3.00063V4.36583C0.429813 4.30264 0.834173 4.14466 1.17497 3.90679C1.4873 3.70819 1.72279 3.55083 2.2607 3.55083C2.7986 3.55083 3.03905 3.70819 3.35262 3.90679C3.70338 4.13034 4.09627 4.38211 4.86595 4.38211C5.63563 4.38211 6.031 4.12925 6.38052 3.90679C6.69284 3.70711 6.94074 3.55083 7.47737 3.55083C8.01406 3.55083 8.27059 3.70819 8.58419 3.90679C8.89779 4.10538 9.17171 4.30723 9.79141 4.36583V3.00063C9.41955 2.9507 9.24603 2.82156 9.0031 2.66638Z" fill="white"/>
<path d="M0.756045 1.34853C1.10556 1.09584 1.4873 0.80863 2.2607 0.80863C3.03409 0.80863 3.42079 1.09584 3.77154 1.34853C4.08388 1.57411 4.32804 1.75285 4.86595 1.75285C5.40386 1.75285 5.64926 1.57411 5.96159 1.34853C6.31235 1.09461 6.70524 0.80863 7.47737 0.80863C8.24956 0.80863 8.65234 1.09584 9.0031 1.34853C9.24603 1.52481 9.41955 1.67149 9.79141 1.72573V0H0V1.72573C0.274129 1.6497 0.530866 1.52161 0.756045 1.34853Z" fill="white"/>
<path d="M5.96035 5.53311C5.64802 5.73936 5.40013 5.90279 4.86347 5.90279C4.3268 5.90279 4.07892 5.73936 3.76659 5.53311C3.41583 5.30093 3.02294 5.03944 2.24954 5.03944C1.47614 5.03944 1.1068 5.30205 0.762242 5.53311C0.535413 5.6928 0.276494 5.81073 0 5.88024V7.21356C0.429813 7.14796 0.834173 6.98391 1.17497 6.73681C1.4873 6.53057 1.72279 6.36715 2.2607 6.36715C2.7986 6.36715 3.03905 6.53057 3.34642 6.73681C3.69718 6.96901 4.09007 7.23048 4.85975 7.23048C5.62943 7.23048 6.0248 6.9679 6.37432 6.73681C6.69284 6.53057 6.94074 6.36715 7.47737 6.36715C8.01406 6.36715 8.27059 6.53057 8.58419 6.73681C8.89779 6.94307 9.17171 7.15273 9.79141 7.21356V5.88024C9.41955 5.8284 9.24603 5.69427 9.0031 5.53311C8.65234 5.30093 8.25082 5.03944 7.48234 5.03944C6.71394 5.03944 6.30987 5.30205 5.96035 5.53311Z" fill="white"/>
<path d="M8.58293 8.08493C8.27059 7.85273 8.01903 7.66869 7.48108 7.66869C6.9432 7.66869 6.69284 7.85273 6.38176 8.08493C6.031 8.34634 5.6381 8.64074 4.86347 8.64074C4.08883 8.64074 3.69718 8.34634 3.34642 8.08493C3.03409 7.85273 2.7862 7.66869 2.2483 7.66869C1.71039 7.66869 1.4873 7.85273 1.17497 8.08493C0.834557 8.36444 0.430168 8.55051 0 8.62552V9.64069H9.79141V8.62552C9.17171 8.55443 8.88167 8.30701 8.58293 8.08493Z" fill="white"/>
<path d="M14.7435 8.82361V5.3054C14.7435 4.20267 15.3435 3.88761 15.9301 3.88761C16.5834 3.88761 17.0101 4.28144 17.0101 5.09535V8.82361H19.0633V5.3054C19.0633 4.18954 19.65 3.87448 20.2366 3.87448C20.8899 3.87448 21.3299 4.26831 21.3299 5.09535V8.82361H23.3832V4.53086C23.3832 3.03431 22.5299 2.04973 20.81 2.04973C19.85 2.04973 19.0633 2.5092 18.7167 3.20497C18.33 2.5092 17.69 2.04973 16.6901 2.04973C15.7301 2.04973 15.0768 2.48294 14.7435 2.94241L14.6101 2.25977H12.6902V8.82361H14.7435Z" fill="white"/>
<path d="M24.4913 5.52857C24.4913 7.60276 26.0379 8.98113 28.1712 8.98113C30.2912 8.98113 31.8377 7.60276 31.8377 5.52857C31.8377 3.45439 30.2912 2.06285 28.1712 2.06285C26.0379 2.06285 24.4913 3.45439 24.4913 5.52857ZM26.5579 5.51544C26.5579 4.53086 27.2112 3.87448 28.1712 3.87448C29.1178 3.87448 29.7711 4.53086 29.7711 5.51544C29.7711 6.51314 29.1178 7.16952 28.1712 7.16952C27.2112 7.16952 26.5579 6.51314 26.5579 5.51544Z" fill="white"/>
<path d="M35.0814 8.82361V5.22663C35.0814 4.41272 35.6014 3.88761 36.4147 3.88761C37.1213 3.88761 37.588 4.42584 37.588 5.25289V8.82361H39.6413V4.76716C39.6413 3.04743 38.7213 2.04973 37.1347 2.04973C36.2681 2.04973 35.5081 2.37792 35.0948 2.94241L34.9614 2.25977H33.0282V8.82361H35.0814Z" fill="white"/>
<path d="M43.8071 8.82361V3.94011H45.0738V2.25976H43.8071V0.224968H41.7538V2.25976H40.4872V3.94011H41.7538V8.82361H43.8071Z" fill="white"/>
<path d="M45.5714 5.52857C45.5714 7.60276 47.1181 8.98113 49.2513 8.98113C51.3712 8.98113 52.9179 7.60276 52.9179 5.52857C52.9179 3.45439 51.3712 2.06285 49.2513 2.06285C47.1181 2.06285 45.5714 3.45439 45.5714 5.52857ZM47.638 5.51544C47.638 4.53086 48.2913 3.87448 49.2513 3.87448C50.1979 3.87448 50.8513 4.53086 50.8513 5.51544C50.8513 6.51314 50.1979 7.16952 49.2513 7.16952C48.2913 7.16952 47.638 6.51314 47.638 5.51544Z" fill="white"/>
</g>
<defs>
<clipPath id="clip0_4_3535">
<rect width="52.9524" height="9.66957" fill="white"/>
</clipPath>
</defs>
</svg>
