<svg width="798" height="148" viewBox="0 0 798 148" fill="none" xmlns="http://www.w3.org/2000/svg">
<path d="M135.678 40.811C130.392 37.3893 124.341 33.5358 112.76 33.5358C101.18 33.5358 95.1466 37.4059 89.8607 40.811C85.1538 43.8506 81.3995 46.2591 73.3119 46.2591C65.2242 46.2591 61.4699 43.8506 56.763 40.811C51.4771 37.3893 45.5561 33.5358 33.9009 33.5358C22.2457 33.5358 16.6796 37.4059 11.4871 40.811C8.06875 43.1646 4.1668 44.9024 0 45.9269L0 66.8224C6.47735 65.8552 12.5711 63.4372 17.7069 59.7964C22.4138 56.7567 25.9627 54.3482 34.069 54.3482C42.1753 54.3482 45.7989 56.7567 50.5245 59.7964C55.8104 63.218 61.7314 67.0716 73.3305 67.0716C84.9297 67.0716 90.888 63.2014 96.1553 59.7964C100.862 56.7401 104.598 54.3482 112.685 54.3482C120.773 54.3482 124.639 56.7567 129.365 59.7964C134.091 62.836 138.219 65.9255 147.558 66.8224V45.9269C141.954 45.1628 139.339 43.1862 135.678 40.811Z" fill="#20293A"/>
<path d="M11.3937 20.6403C16.6609 16.7726 22.4138 12.3767 34.069 12.3767C45.7242 12.3767 51.5518 16.7726 56.8377 20.6403C61.5446 24.093 65.2242 26.8287 73.3305 26.8287C81.4369 26.8287 85.1351 24.093 89.842 20.6403C95.128 16.7538 101.049 12.3767 112.685 12.3767C124.322 12.3767 130.392 16.7726 135.678 20.6403C139.339 23.3383 141.954 25.5834 147.558 26.4136V0H0V26.4136C4.13116 25.2499 8.00023 23.2894 11.3937 20.6403V20.6403Z" fill="#20293A"/>
<path d="M89.8234 84.6884C85.1165 87.8453 81.3808 90.3467 73.2932 90.3467C65.2055 90.3467 61.4699 87.8453 56.763 84.6884C51.4771 81.1347 45.5561 77.1324 33.9009 77.1324C22.2457 77.1324 16.6796 81.1519 11.4871 84.6884C8.06875 87.1327 4.1668 88.9376 0 90.0016L0 110.409C6.47735 109.405 12.5711 106.894 17.7069 103.112C22.4138 99.9554 25.9627 97.454 34.069 97.454C42.1753 97.454 45.7989 99.9554 50.4311 103.112C55.717 106.666 61.638 110.668 73.2371 110.668C84.8363 110.668 90.7946 106.649 96.0619 103.112C100.862 99.9554 104.598 97.454 112.685 97.454C120.773 97.454 124.639 99.9554 129.365 103.112C134.091 106.269 138.219 109.478 147.558 110.409V90.0016C141.954 89.2081 139.339 87.1552 135.678 84.6884C130.392 81.1347 124.341 77.1324 112.76 77.1324C101.18 77.1324 95.0906 81.1519 89.8234 84.6884Z" fill="#20293A"/>
<path d="M129.346 123.746C124.639 120.192 120.848 117.375 112.741 117.375C104.635 117.375 100.862 120.192 96.174 123.746C90.888 127.747 84.967 132.253 73.2932 132.253C61.6193 132.253 55.717 127.747 50.4311 123.746C45.7242 120.192 41.9885 117.375 33.8822 117.375C25.7759 117.375 22.4138 120.192 17.7069 123.746C12.5769 128.024 6.48269 130.872 0 132.02L0 147.558H147.558V132.02C138.219 130.932 133.848 127.145 129.346 123.746Z" fill="#20293A"/>
<path d="M222.186 135.052V81.2031C222.186 64.325 231.228 59.5027 240.069 59.5027C249.914 59.5027 256.344 65.5306 256.344 77.9882V135.052H287.287V81.2031C287.287 64.1241 296.128 59.3018 304.969 59.3018C314.814 59.3018 321.445 65.3297 321.445 77.9882V135.052H352.388V69.3482C352.388 46.4423 339.529 31.3726 313.609 31.3726C299.142 31.3726 287.287 38.4051 282.063 49.0544C276.236 38.4051 266.591 31.3726 251.522 31.3726C237.055 31.3726 227.209 38.0032 222.186 45.0358L220.177 34.5874H191.243V135.052H222.186Z" fill="#20293A"/>
<path d="M369.087 84.6189C369.087 116.366 392.395 137.463 424.544 137.463C456.492 137.463 479.799 116.366 479.799 84.6189C479.799 52.872 456.492 31.5735 424.544 31.5735C392.395 31.5735 369.087 52.872 369.087 84.6189ZM400.231 84.418C400.231 69.3482 410.077 59.3018 424.544 59.3018C438.81 59.3018 448.655 69.3482 448.655 84.418C448.655 99.6886 438.81 109.735 424.544 109.735C410.077 109.735 400.231 99.6886 400.231 84.418Z" fill="#20293A"/>
<path d="M528.682 135.052V79.9975C528.682 67.5399 536.518 59.5027 548.775 59.5027C559.424 59.5027 566.457 67.7408 566.457 80.3994V135.052H597.4V72.965C597.4 46.6432 583.536 31.3726 559.625 31.3726C546.565 31.3726 535.112 36.3958 528.883 45.0358L526.874 34.5874H497.739V135.052H528.682Z" fill="#20293A"/>
<path d="M660.179 135.052V60.3064H679.268V34.5874H660.179V3.44336H629.236V34.5874H610.148V60.3064H629.236V135.052H660.179Z" fill="#20293A"/>
<path d="M686.768 84.6189C686.768 116.366 710.076 137.463 742.224 137.463C774.172 137.463 797.48 116.366 797.48 84.6189C797.48 52.872 774.172 31.5735 742.224 31.5735C710.076 31.5735 686.768 52.872 686.768 84.6189ZM717.912 84.418C717.912 69.3482 727.757 59.3018 742.224 59.3018C756.49 59.3018 766.336 69.3482 766.336 84.418C766.336 99.6886 756.49 109.735 742.224 109.735C727.757 109.735 717.912 99.6886 717.912 84.418Z" fill="#20293A"/>
</svg>